<svg id="Twitter1" xmlns="http://www.w3.org/2000/svg" width="512" height="512" viewBox="0 0 512 512">
  <rect id="Retângulo_5" data-name="Retângulo 5" width="512" height="512" rx="76.8" fill="#f75555"/>
  <path id="Caminho_2" data-name="Caminho 2" d="M437,152a72,72,0,0,1-40,12,72,72,0,0,0,32-40,72,72,0,0,1-45,17,72,72,0,0,0-122,65,200,200,0,0,1-145-74,72,72,0,0,0,22,94,72,72,0,0,1-32-7,72,72,0,0,0,56,69,72,72,0,0,1-32,1,72,72,0,0,0,67,50A200,200,0,0,1,93,368,200,200,0,0,0,402,189a200,200,0,0,0,35-37" fill="#fff"/>
</svg>
